<svg width="38" height="38" viewBox="0 0 38 38" fill="none" xmlns="http://www.w3.org/2000/svg">
<path d="M18.9998 0.73999C8.9165 0.73999 0.666504 8.97166 0.666504 19.11C0.666504 28.2767 7.3765 35.885 16.1398 37.26V24.4267H11.4832V19.11H16.1398V15.0583C16.1398 10.4567 18.8715 7.92666 23.0698 7.92666C25.0682 7.92666 27.1582 8.27499 27.1582 8.27499V12.8033H24.8482C22.5748 12.8033 21.8598 14.215 21.8598 15.6633V19.11H26.9565L26.1315 24.4267H21.8598V37.26C26.18 36.5777 30.1139 34.3734 32.9514 31.0451C35.7889 27.7168 37.343 23.4837 37.3332 19.11C37.3332 8.97166 29.0832 0.73999 18.9998 0.73999Z" fill="#F0DDA3"/>
</svg>
