<svg width="14" height="22" viewBox="0 0 14 22" fill="none" xmlns="http://www.w3.org/2000/svg">
<path d="M11.5 0.5H2.5C1.90402 0.502468 1.33316 0.740313 0.911736 1.16174C0.490313 1.58316 0.252468 2.15402 0.25 2.75V19.25C0.252468 19.846 0.490313 20.4168 0.911736 20.8383C1.33316 21.2597 1.90402 21.4975 2.5 21.5H11.5C12.096 21.4975 12.6668 21.2597 13.0883 20.8383C13.5097 20.4168 13.7475 19.846 13.75 19.25V2.75C13.7475 2.15402 13.5097 1.58316 13.0883 1.16174C12.6668 0.740313 12.096 0.502468 11.5 0.5ZM7 5.75C6.7775 5.75 6.55999 5.68402 6.37498 5.5604C6.18998 5.43679 6.04578 5.26109 5.96064 5.05552C5.87549 4.84995 5.85321 4.62375 5.89662 4.40552C5.94002 4.18729 6.04717 3.98684 6.2045 3.8295C6.36184 3.67217 6.56229 3.56502 6.78052 3.52162C6.99875 3.47821 7.22495 3.50049 7.43052 3.58564C7.63609 3.67078 7.81179 3.81498 7.9354 3.99998C8.05902 4.18499 8.125 4.4025 8.125 4.625C8.125 4.92337 8.00647 5.20952 7.79549 5.4205C7.58452 5.63147 7.29837 5.75 7 5.75Z" fill="#F0DDA3"/>
</svg>
