<svg width="20" height="20" viewBox="0 0 20 20" fill="none" xmlns="http://www.w3.org/2000/svg">
<g clip-path="url(#clip0_125_200)">
<g filter="url(#filter0_d_125_200)">
<path fill-rule="evenodd" clip-rule="evenodd" d="M9.99984 1.66675C5.39734 1.66675 1.6665 5.39758 1.6665 10.0001C1.6665 14.6026 5.39734 18.3334 9.99984 18.3334C14.6023 18.3334 18.3332 14.6026 18.3332 10.0001C18.3332 5.39758 14.6023 1.66675 9.99984 1.66675ZM9.99984 13.3334C10.2209 13.3334 10.4328 13.2456 10.5891 13.0893C10.7454 12.9331 10.8332 12.7211 10.8332 12.5001V10.0001C10.8332 9.77907 10.7454 9.56711 10.5891 9.41083C10.4328 9.25455 10.2209 9.16675 9.99984 9.16675C9.77882 9.16675 9.56686 9.25455 9.41058 9.41083C9.2543 9.56711 9.1665 9.77907 9.1665 10.0001V12.5001C9.1665 12.7211 9.2543 12.9331 9.41058 13.0893C9.56686 13.2456 9.77882 13.3334 9.99984 13.3334ZM10.8332 7.50008C10.8332 7.7211 10.7454 7.93306 10.5891 8.08934C10.4328 8.24562 10.2209 8.33342 9.99984 8.33342C9.77882 8.33342 9.56686 8.24562 9.41058 8.08934C9.2543 7.93306 9.1665 7.7211 9.1665 7.50008C9.1665 7.27907 9.2543 7.06711 9.41058 6.91083C9.56686 6.75455 9.77882 6.66675 9.99984 6.66675C10.2209 6.66675 10.4328 6.75455 10.5891 6.91083C10.7454 7.06711 10.8332 7.27907 10.8332 7.50008Z" fill="#F0DDA3"/>
</g>
</g>
<defs>
<filter id="filter0_d_125_200" x="-1.3335" y="-1.33325" width="22.6665" height="22.6667" filterUnits="userSpaceOnUse" color-interpolation-filters="sRGB">
<feFlood flood-opacity="0" result="BackgroundImageFix"/>
<feColorMatrix in="SourceAlpha" type="matrix" values="0 0 0 0 0 0 0 0 0 0 0 0 0 0 0 0 0 0 127 0" result="hardAlpha"/>
<feOffset/>
<feGaussianBlur stdDeviation="1.5"/>
<feComposite in2="hardAlpha" operator="out"/>
<feColorMatrix type="matrix" values="0 0 0 0 0.229167 0 0 0 0 0 0 0 0 0 0 0 0 0 0.25 0"/>
<feBlend mode="normal" in2="BackgroundImageFix" result="effect1_dropShadow_125_200"/>
<feBlend mode="normal" in="SourceGraphic" in2="effect1_dropShadow_125_200" result="shape"/>
</filter>
<clipPath id="clip0_125_200">
<rect width="20" height="20" fill="white"/>
</clipPath>
</defs>
</svg>
