<svg width="37" height="37" viewBox="0 0 37 37" fill="none" xmlns="http://www.w3.org/2000/svg">
<path d="M24.375 18.5C24.375 19.662 24.0304 20.7978 23.3849 21.764C22.7393 22.7301 21.8218 23.4831 20.7483 23.9278C19.6747 24.3725 18.4935 24.4888 17.3538 24.2621C16.2142 24.0354 15.1674 23.4759 14.3457 22.6543C13.5241 21.8326 12.9646 20.7858 12.7379 19.6462C12.5112 18.5065 12.6275 17.3253 13.0722 16.2517C13.5169 15.1782 14.2699 14.2607 15.236 13.6151C16.2022 12.9696 17.338 12.625 18.5 12.625C20.0567 12.6298 21.5482 13.2504 22.6489 14.3511C23.7496 15.4518 24.3702 16.9433 24.375 18.5ZM36.8594 10.4219V26.5781C36.8594 29.3049 35.7762 31.92 33.8481 33.8481C31.92 35.7762 29.3049 36.8594 26.5781 36.8594H10.4219C7.69512 36.8594 5.08004 35.7762 3.15193 33.8481C1.22382 31.92 0.140625 29.3049 0.140625 26.5781V10.4219C0.140625 7.69512 1.22382 5.08004 3.15193 3.15193C5.08004 1.22382 7.69512 0.140625 10.4219 0.140625H26.5781C29.3049 0.140625 31.92 1.22382 33.8481 3.15193C35.7762 5.08004 36.8594 7.69512 36.8594 10.4219ZM27.3125 18.5C27.3125 16.7571 26.7957 15.0532 25.8273 13.604C24.859 12.1548 23.4827 11.0253 21.8724 10.3583C20.2621 9.69131 18.4902 9.5168 16.7808 9.85683C15.0713 10.1969 13.5011 11.0362 12.2686 12.2686C11.0362 13.5011 10.1969 15.0713 9.85683 16.7808C9.5168 18.4902 9.69131 20.2621 10.3583 21.8724C11.0253 23.4827 12.1548 24.859 13.604 25.8273C15.0532 26.7957 16.7571 27.3125 18.5 27.3125C20.8372 27.3125 23.0787 26.384 24.7314 24.7314C26.384 23.0787 27.3125 20.8372 27.3125 18.5ZM30.25 8.95312C30.25 8.51739 30.1208 8.09144 29.8787 7.72914C29.6366 7.36683 29.2925 7.08445 28.89 6.9177C28.4874 6.75095 28.0444 6.70732 27.6171 6.79233C27.1897 6.87734 26.7971 7.08717 26.489 7.39528C26.1809 7.70339 25.9711 8.09595 25.8861 8.52332C25.8011 8.95068 25.8447 9.39366 26.0115 9.79622C26.1782 10.1988 26.4606 10.5429 26.8229 10.785C27.1852 11.027 27.6111 11.1562 28.0469 11.1562C28.6312 11.1562 29.1916 10.9241 29.6047 10.511C30.0179 10.0978 30.25 9.53743 30.25 8.95312Z" fill="#F0DDA3"/>
</svg>
