<svg width="110" height="102" viewBox="0 0 110 102" fill="none" xmlns="http://www.w3.org/2000/svg">
<path d="M5.92 89.52C6.70933 89.52 7.424 89.7013 8.064 90.064C8.704 90.416 9.20533 90.9173 9.568 91.568C9.93067 92.2187 10.112 92.96 10.112 93.792C10.112 94.624 9.93067 95.3653 9.568 96.016C9.20533 96.6667 8.704 97.1733 8.064 97.536C7.424 97.8987 6.70933 98.08 5.92 98.08C5.216 98.08 4.58133 97.9307 4.016 97.632C3.46133 97.3333 3.01333 96.9013 2.672 96.336V98H1.584V86.128H2.72V91.184C3.072 90.64 3.52 90.2293 4.064 89.952C4.61867 89.664 5.23733 89.52 5.92 89.52ZM5.84 97.072C6.42667 97.072 6.96 96.9387 7.44 96.672C7.92 96.3947 8.29333 96.0053 8.56 95.504C8.83733 95.0027 8.976 94.432 8.976 93.792C8.976 93.152 8.83733 92.5813 8.56 92.08C8.29333 91.5787 7.92 91.1947 7.44 90.928C6.96 90.6507 6.42667 90.512 5.84 90.512C5.24267 90.512 4.704 90.6507 4.224 90.928C3.75467 91.1947 3.38133 91.5787 3.104 92.08C2.83733 92.5813 2.704 93.152 2.704 93.792C2.704 94.432 2.83733 95.0027 3.104 95.504C3.38133 96.0053 3.75467 96.3947 4.224 96.672C4.704 96.9387 5.24267 97.072 5.84 97.072ZM19.7558 94.144H12.7158C12.7798 95.0187 13.1158 95.728 13.7238 96.272C14.3318 96.8053 15.0998 97.072 16.0278 97.072C16.5504 97.072 17.0304 96.9813 17.4678 96.8C17.9051 96.608 18.2838 96.3307 18.6038 95.968L19.2438 96.704C18.8704 97.152 18.4011 97.4933 17.8358 97.728C17.2811 97.9627 16.6678 98.08 15.9958 98.08C15.1318 98.08 14.3638 97.8987 13.6918 97.536C13.0304 97.1627 12.5131 96.6507 12.1398 96C11.7664 95.3493 11.5798 94.6133 11.5798 93.792C11.5798 92.9707 11.7558 92.2347 12.1078 91.584C12.4704 90.9333 12.9611 90.4267 13.5798 90.064C14.2091 89.7013 14.9131 89.52 15.6918 89.52C16.4704 89.52 17.1691 89.7013 17.7878 90.064C18.4064 90.4267 18.8918 90.9333 19.2438 91.584C19.5958 92.224 19.7718 92.96 19.7718 93.792L19.7558 94.144ZM15.6918 90.496C14.8811 90.496 14.1984 90.7573 13.6438 91.28C13.0998 91.792 12.7904 92.464 12.7158 93.296H18.6838C18.6091 92.464 18.2944 91.792 17.7398 91.28C17.1958 90.7573 16.5131 90.496 15.6918 90.496ZM24.7936 89.52C25.8923 89.52 26.735 89.7973 27.3216 90.352C27.9083 90.896 28.2016 91.7067 28.2016 92.784V98H27.1136V96.688C26.8576 97.1253 26.479 97.4667 25.9776 97.712C25.487 97.9573 24.9003 98.08 24.2176 98.08C23.279 98.08 22.5323 97.856 21.9776 97.408C21.423 96.96 21.1456 96.368 21.1456 95.632C21.1456 94.9173 21.4016 94.3413 21.9136 93.904C22.4363 93.4667 23.263 93.248 24.3936 93.248H27.0656V92.736C27.0656 92.0107 26.863 91.4613 26.4576 91.088C26.0523 90.704 25.4603 90.512 24.6816 90.512C24.1483 90.512 23.6363 90.6027 23.1456 90.784C22.655 90.9547 22.2336 91.1947 21.8816 91.504L21.3696 90.656C21.7963 90.2933 22.3083 90.016 22.9056 89.824C23.503 89.6213 24.1323 89.52 24.7936 89.52ZM24.3936 97.184C25.0336 97.184 25.583 97.04 26.0416 96.752C26.5003 96.4533 26.8416 96.0267 27.0656 95.472V94.096H24.4256C22.9856 94.096 22.2656 94.5973 22.2656 95.6C22.2656 96.0907 22.4523 96.48 22.8256 96.768C23.199 97.0453 23.7216 97.184 24.3936 97.184ZM38.8711 89.584V98H37.7831V96.464C37.4845 96.976 37.0738 97.376 36.5511 97.664C36.0285 97.9413 35.4311 98.08 34.7591 98.08C33.6605 98.08 32.7911 97.776 32.1511 97.168C31.5218 96.5493 31.2071 95.648 31.2071 94.464V89.584H32.3431V94.352C32.3431 95.2373 32.5618 95.9093 32.9991 96.368C33.4365 96.8267 34.0605 97.056 34.8711 97.056C35.7565 97.056 36.4551 96.7893 36.9671 96.256C37.4791 95.712 37.7351 94.96 37.7351 94V89.584H38.8711ZM46.4848 97.488C46.2714 97.68 46.0048 97.8293 45.6848 97.936C45.3754 98.032 45.0501 98.08 44.7088 98.08C43.9194 98.08 43.3114 97.8667 42.8848 97.44C42.4581 97.0133 42.2448 96.4107 42.2448 95.632V90.544H40.7408V89.584H42.2448V87.744H43.3808V89.584H45.9408V90.544H43.3808V95.568C43.3808 96.0693 43.5034 96.4533 43.7488 96.72C44.0048 96.976 44.3674 97.104 44.8368 97.104C45.0714 97.104 45.2954 97.0667 45.5088 96.992C45.7328 96.9173 45.9248 96.8107 46.0848 96.672L46.4848 97.488ZM55.4685 89.584L51.2605 99.008C50.9192 99.7973 50.5245 100.357 50.0765 100.688C49.6285 101.019 49.0898 101.184 48.4605 101.184C48.0552 101.184 47.6765 101.12 47.3245 100.992C46.9725 100.864 46.6685 100.672 46.4125 100.416L46.9405 99.568C47.3672 99.9947 47.8792 100.208 48.4765 100.208C48.8605 100.208 49.1858 100.101 49.4525 99.888C49.7298 99.6747 49.9858 99.312 50.2205 98.8L50.5885 97.984L46.8285 89.584H48.0125L51.1805 96.736L54.3485 89.584H55.4685ZM63.5119 98.08C62.8292 98.08 62.1732 97.984 61.5439 97.792C60.9252 97.5893 60.4399 97.3387 60.0879 97.04L60.5999 96.144C60.9519 96.4213 61.3945 96.6507 61.9279 96.832C62.4612 97.0027 63.0159 97.088 63.5919 97.088C64.3599 97.088 64.9252 96.9707 65.2879 96.736C65.6612 96.4907 65.8479 96.1493 65.8479 95.712C65.8479 95.4027 65.7465 95.1627 65.5439 94.992C65.3412 94.8107 65.0852 94.6773 64.7759 94.592C64.4665 94.496 64.0559 94.4053 63.5439 94.32C62.8612 94.192 62.3119 94.064 61.8959 93.936C61.4799 93.7973 61.1225 93.568 60.8239 93.248C60.5359 92.928 60.3919 92.4853 60.3919 91.92C60.3919 91.216 60.6852 90.64 61.2719 90.192C61.8585 89.744 62.6745 89.52 63.7199 89.52C64.2639 89.52 64.8079 89.5947 65.3519 89.744C65.8959 89.8827 66.3439 90.0693 66.6959 90.304L66.1999 91.216C65.5065 90.736 64.6799 90.496 63.7199 90.496C62.9945 90.496 62.4452 90.624 62.0719 90.88C61.7092 91.136 61.5279 91.472 61.5279 91.888C61.5279 92.208 61.6292 92.464 61.8319 92.656C62.0452 92.848 62.3065 92.992 62.6159 93.088C62.9252 93.1733 63.3519 93.264 63.8959 93.36C64.5679 93.488 65.1065 93.616 65.5119 93.744C65.9172 93.872 66.2639 94.0907 66.5519 94.4C66.8399 94.7093 66.9839 95.136 66.9839 95.68C66.9839 96.416 66.6745 97.0027 66.0559 97.44C65.4479 97.8667 64.5999 98.08 63.5119 98.08ZM72.028 89.52C73.1267 89.52 73.9693 89.7973 74.556 90.352C75.1427 90.896 75.436 91.7067 75.436 92.784V98H74.348V96.688C74.092 97.1253 73.7133 97.4667 73.212 97.712C72.7213 97.9573 72.1347 98.08 71.452 98.08C70.5133 98.08 69.7667 97.856 69.212 97.408C68.6573 96.96 68.38 96.368 68.38 95.632C68.38 94.9173 68.636 94.3413 69.148 93.904C69.6707 93.4667 70.4973 93.248 71.628 93.248H74.3V92.736C74.3 92.0107 74.0973 91.4613 73.692 91.088C73.2867 90.704 72.6947 90.512 71.916 90.512C71.3827 90.512 70.8707 90.6027 70.38 90.784C69.8893 90.9547 69.468 91.1947 69.116 91.504L68.604 90.656C69.0307 90.2933 69.5427 90.016 70.14 89.824C70.7373 89.6213 71.3667 89.52 72.028 89.52ZM71.628 97.184C72.268 97.184 72.8173 97.04 73.276 96.752C73.7347 96.4533 74.076 96.0267 74.3 95.472V94.096H71.66C70.22 94.096 69.5 94.5973 69.5 95.6C69.5 96.0907 69.6867 96.48 70.06 96.768C70.4333 97.0453 70.956 97.184 71.628 97.184ZM78.5215 86.128H79.6575V98H78.5215V86.128ZM86.2584 98.08C85.4477 98.08 84.717 97.8987 84.0664 97.536C83.4157 97.1627 82.9037 96.6507 82.5304 96C82.157 95.3493 81.9704 94.6133 81.9704 93.792C81.9704 92.9707 82.157 92.2347 82.5304 91.584C82.9037 90.9333 83.4157 90.4267 84.0664 90.064C84.717 89.7013 85.4477 89.52 86.2584 89.52C87.069 89.52 87.7997 89.7013 88.4504 90.064C89.101 90.4267 89.6077 90.9333 89.9704 91.584C90.3437 92.2347 90.5304 92.9707 90.5304 93.792C90.5304 94.6133 90.3437 95.3493 89.9704 96C89.6077 96.6507 89.101 97.1627 88.4504 97.536C87.7997 97.8987 87.069 98.08 86.2584 98.08ZM86.2584 97.072C86.8557 97.072 87.389 96.9387 87.8584 96.672C88.3384 96.3947 88.7117 96.0053 88.9784 95.504C89.245 95.0027 89.3784 94.432 89.3784 93.792C89.3784 93.152 89.245 92.5813 88.9784 92.08C88.7117 91.5787 88.3384 91.1947 87.8584 90.928C87.389 90.6507 86.8557 90.512 86.2584 90.512C85.661 90.512 85.1224 90.6507 84.6424 90.928C84.173 91.1947 83.7997 91.5787 83.5224 92.08C83.2557 92.5813 83.1224 93.152 83.1224 93.792C83.1224 94.432 83.2557 95.0027 83.5224 95.504C83.7997 96.0053 84.173 96.3947 84.6424 96.672C85.1224 96.9387 85.661 97.072 86.2584 97.072ZM97.1376 89.52C98.1936 89.52 99.031 89.8293 99.6496 90.448C100.279 91.056 100.594 91.9467 100.594 93.12V98H99.4576V93.232C99.4576 92.3573 99.239 91.6907 98.8016 91.232C98.3643 90.7733 97.7403 90.544 96.9296 90.544C96.023 90.544 95.303 90.816 94.7696 91.36C94.247 91.8933 93.9856 92.6347 93.9856 93.584V98H92.8496V89.584H93.9376V91.136C94.247 90.624 94.6736 90.2293 95.2176 89.952C95.7723 89.664 96.4123 89.52 97.1376 89.52Z" fill="#F0DDA3"/>
<path d="M17.94 78.12C14.94 78.12 12.42 77.6 10.38 76.56C8.38 75.56 6.86 74.2 5.82 72.48C4.82 70.8 4.32 68.92 4.32 66.84C4.32 65.24 4.6 63.6 5.16 61.92C5.76 60.24 6.64 58.58 7.8 56.94C9 55.3 10.48 53.8 12.24 52.44C14 51.08 15.92 50 18 49.2C20.08 48.36 22.14 47.94 24.18 47.94C26.22 47.94 27.72 48.36 28.68 49.2C29.68 50 30.18 51.04 30.18 52.32C30.18 53.08 30 53.92 29.64 54.84C29.28 55.76 28.72 56.68 27.96 57.6C26.92 58.92 25.64 60.1 24.12 61.14C22.6 62.14 20.98 62.94 19.26 63.54C17.58 64.1 15.9 64.38 14.22 64.38C13.94 64.38 13.68 64.38 13.44 64.38C13.2 64.34 12.94 64.3 12.66 64.26C12.5 64.22 12.42 64.12 12.42 63.96C12.46 63.76 12.56 63.68 12.72 63.72C14.36 63.84 16.1 63.58 17.94 62.94C19.82 62.3 21.6 61.42 23.28 60.3C24.96 59.18 26.28 57.96 27.24 56.64C28.36 55.08 28.92 53.64 28.92 52.32C28.92 51.36 28.58 50.56 27.9 49.92C27.22 49.24 26.14 48.9 24.66 48.9C22.7 48.9 20.8 49.32 18.96 50.16C17.12 50.96 15.4 52.02 13.8 53.34C12.24 54.66 10.9 56.1 9.78 57.66C8.7 59.14 7.88 60.7 7.32 62.34C6.76 63.98 6.48 65.56 6.48 67.08C6.48 68.84 6.88 70.48 7.68 72C8.48 73.48 9.7 74.66 11.34 75.54C12.98 76.46 15.08 76.92 17.64 76.92C20.48 76.92 23.06 76.42 25.38 75.42C27.7 74.46 29.7 73.14 31.38 71.46C33.06 69.74 34.34 67.8 35.22 65.64C36.14 63.44 36.6 61.12 36.6 58.68C36.6 57.64 36.56 56.64 36.48 55.68C36.44 54.68 36.26 53.72 35.94 52.8C35.5 51.4 34.94 49.94 34.26 48.42C33.58 46.9 32.96 45.34 32.4 43.74C31.88 42.14 31.62 40.52 31.62 38.88C31.62 37.4 31.92 35.92 32.52 34.44C33.32 32.64 34.48 31.2 36 30.12C37.56 29 39.38 28.44 41.46 28.44C42.22 28.44 42.98 28.56 43.74 28.8C44.54 29 45.22 29.36 45.78 29.88C46.34 30.4 46.62 31.12 46.62 32.04C46.62 32.68 46.42 33.14 46.02 33.42C45.62 33.7 45.2 33.84 44.76 33.84C44.52 33.84 44.36 33.82 44.28 33.78L44.46 32.58C44.46 31.58 44.16 30.84 43.56 30.36C43 29.84 42.26 29.58 41.34 29.58C40.22 29.58 39.12 29.9 38.04 30.54C36.96 31.14 36.16 31.92 35.64 32.88C34.84 34.36 34.44 35.88 34.44 37.44C34.44 38.8 34.66 40.14 35.1 41.46C35.58 42.74 36.14 44 36.78 45.24C37.46 46.44 38.08 47.6 38.64 48.72C40.24 51.76 41.04 54.94 41.04 58.26C41.04 61.14 40.44 63.8 39.24 66.24C38.04 68.64 36.38 70.72 34.26 72.48C32.14 74.28 29.68 75.66 26.88 76.62C24.12 77.62 21.14 78.12 17.94 78.12ZM46.1564 72.42C45.1564 72.42 44.2564 72.14 43.4564 71.58C42.6964 70.98 42.3164 70.02 42.3164 68.7C42.3164 67.3 42.6564 65.76 43.3364 64.08C44.0164 62.4 44.6564 60.9 45.2564 59.58C45.5764 58.94 45.9964 58.08 46.5164 57C47.0764 55.88 47.6764 54.78 48.3164 53.7H45.4964C45.3764 53.7 45.3164 53.6 45.3164 53.4C45.3164 53.24 45.3764 53.08 45.4964 52.92C45.6164 52.72 45.7564 52.62 45.9164 52.62C47.0364 52.62 47.8764 52.52 48.4364 52.32C48.9964 52.12 49.4764 51.84 49.8764 51.48C50.5164 50.92 51.1364 50.2 51.7364 49.32C52.3764 48.44 52.9964 47.68 53.5964 47.04C54.0364 46.48 54.5764 46.06 55.2164 45.78C55.8964 45.5 56.3364 45.4 56.5364 45.48C56.3364 45.76 56.0164 46.24 55.5764 46.92C55.1364 47.6 54.6764 48.34 54.1964 49.14C53.7164 49.94 53.2764 50.68 52.8764 51.36C52.4764 52.04 52.2164 52.5 52.0964 52.74H56.0564C56.1764 52.74 56.2364 52.78 56.2364 52.86C56.2364 53.02 56.1364 53.2 55.9364 53.4C55.7764 53.6 55.6164 53.7 55.4564 53.7H51.5564C50.8364 54.94 49.9764 56.56 48.9764 58.56C48.0164 60.52 47.1564 62.42 46.3964 64.26C46.2364 64.62 45.9564 65.34 45.5564 66.42C45.1964 67.5 45.0164 68.5 45.0164 69.42C45.0164 70.02 45.1364 70.52 45.3764 70.92C45.6564 71.32 46.1164 71.52 46.7564 71.52C47.4364 71.52 48.1764 71.28 48.9764 70.8C49.7764 70.28 50.3964 69.76 50.8364 69.24C51.7564 68.24 52.5964 67.14 53.3564 65.94C54.1164 64.74 54.8764 63.46 55.6364 62.1C55.7564 61.94 55.8764 61.86 55.9964 61.86C56.1564 61.86 56.2364 61.98 56.2364 62.22C56.2364 62.42 56.1964 62.58 56.1164 62.7C55.3964 64.02 54.6164 65.34 53.7764 66.66C52.9764 67.98 51.9964 69.22 50.8364 70.38C50.3164 70.9 49.6164 71.38 48.7364 71.82C47.8564 72.22 46.9964 72.42 46.1564 72.42ZM57.1594 88.92C56.5194 89.08 55.8794 89.16 55.2394 89.16C54.0794 89.16 53.1994 88.88 52.5994 88.32C51.9994 87.76 51.6994 87.06 51.6994 86.22C51.6994 85.5 51.9394 84.72 52.4194 83.88C52.8994 83.08 53.6194 82.36 54.5794 81.72C55.8194 80.88 56.9394 80.2 57.9394 79.68C58.9794 79.16 60.0994 78.64 61.2994 78.12C62.4994 77.64 63.9994 76.98 65.7994 76.14C65.9994 75.7 66.2194 75.18 66.4594 74.58C66.6994 73.98 67.0994 72.98 67.6594 71.58C68.2194 70.18 69.0394 68.1 70.1194 65.34C69.2394 66.42 68.3594 67.42 67.4794 68.34C66.5994 69.26 65.8794 69.98 65.3194 70.5C64.5194 71.1 63.7394 71.58 62.9794 71.94C62.2594 72.26 61.5394 72.42 60.8194 72.42C59.8594 72.42 59.1794 72.14 58.7794 71.58C58.4194 71.02 58.2394 70.36 58.2394 69.6C58.2394 68.96 58.3194 68.3 58.4794 67.62C58.6794 66.94 58.8994 66.3 59.1394 65.7C59.6994 64.3 60.2994 62.98 60.9394 61.74C61.6194 60.46 62.2794 59.14 62.9194 57.78C63.0794 57.46 63.2994 56.94 63.5794 56.22C63.8994 55.5 64.0594 54.84 64.0594 54.24C64.0594 53.56 63.7594 53.22 63.1594 53.22C62.5994 53.22 62.0194 53.5 61.4194 54.06C60.8594 54.58 60.3594 55.18 59.9194 55.86C59.4794 56.54 59.1394 57.08 58.8994 57.48C58.8994 57.48 58.6994 57.86 58.2994 58.62C57.9394 59.38 57.4594 60.32 56.8594 61.44C56.2994 62.52 55.7194 63.54 55.1194 64.5C54.9994 64.7 54.8394 64.8 54.6394 64.8C54.4794 64.8 54.3994 64.72 54.3994 64.56C54.3994 64.48 54.4994 64.24 54.6994 63.84C55.5794 62.28 56.2594 60.98 56.7394 59.94C57.2594 58.9 57.8394 57.82 58.4794 56.7C59.1194 55.54 59.8594 54.44 60.6994 53.4C61.2594 52.8 61.8594 52.36 62.4994 52.08C63.1794 51.76 63.8394 51.6 64.4794 51.6C65.5994 51.6 66.3594 51.86 66.7594 52.38C67.1994 52.86 67.4194 53.46 67.4194 54.18C67.4194 54.94 67.2594 55.72 66.9394 56.52C66.6194 57.32 66.2994 58.02 65.9794 58.62C64.9794 60.38 64.1594 61.92 63.5194 63.24C62.8794 64.52 62.3194 65.76 61.8394 66.96C61.4794 67.84 61.2994 68.56 61.2994 69.12C61.2994 70.16 61.7394 70.68 62.6194 70.68C63.3394 70.68 64.0794 70.36 64.8394 69.72C66.9594 68 68.6794 65.98 69.9994 63.66C71.3194 61.34 72.5794 58.92 73.7794 56.4C74.1794 55.6 74.6794 54.74 75.2794 53.82C75.8794 52.86 76.6194 52.06 77.4994 51.42C78.3794 50.74 79.3994 50.44 80.5594 50.52C79.9994 51.04 79.3194 52 78.5194 53.4C77.7594 54.8 76.9394 56.44 76.0594 58.32C75.2194 60.2 74.3794 62.16 73.5394 64.2C72.6994 66.24 71.8994 68.2 71.1394 70.08C70.4194 71.92 69.7994 73.48 69.2794 74.76C70.3594 74.32 71.6194 73.64 73.0594 72.72C74.5394 71.84 75.9194 70.68 77.1994 69.24C78.1194 68.28 78.9394 67.2 79.6594 66C80.4194 64.76 81.1794 63.46 81.9394 62.1C82.0594 61.94 82.1794 61.86 82.2994 61.86C82.4594 61.86 82.5394 61.98 82.5394 62.22C82.5394 62.42 82.4994 62.58 82.4194 62.7C81.6994 64.02 80.9394 65.34 80.1394 66.66C79.3394 67.98 78.3594 69.22 77.1994 70.38C75.7594 71.74 74.2994 72.9 72.8194 73.86C71.3794 74.86 70.0194 75.58 68.7394 76.02C67.7794 78.18 66.7594 80.16 65.6794 81.96C64.6394 83.76 63.4394 85.26 62.0794 86.46C60.7194 87.66 59.0794 88.48 57.1594 88.92ZM56.7994 87.72C58.2394 87.28 59.4794 86.5 60.5194 85.38C61.5594 84.3 62.4594 83.04 63.2194 81.6C64.0194 80.16 64.6994 78.72 65.2594 77.28C63.9794 77.96 62.3794 78.66 60.4594 79.38C58.5394 80.14 56.7194 81.16 54.9994 82.44C54.2394 83.04 53.6594 83.66 53.2594 84.3C52.8594 84.94 52.6594 85.54 52.6594 86.1C52.6594 86.66 52.8594 87.12 53.2594 87.48C53.6594 87.84 54.2394 88.02 54.9994 88.02C55.2394 88.02 55.4994 88 55.7794 87.96C56.0994 87.92 56.4394 87.84 56.7994 87.72ZM84.7266 72.36C83.2866 72.36 82.2866 71.94 81.7266 71.1C81.1666 70.26 80.8866 69.2 80.8866 67.92C80.8866 66.6 81.0866 65.16 81.4866 63.6C81.9266 62.04 82.4266 60.52 82.9866 59.04C83.5866 57.56 84.1466 56.26 84.6666 55.14C85.2266 54.02 85.6066 53.24 85.8066 52.8C86.5266 51.28 87.4066 49.56 88.4466 47.64C89.5266 45.72 90.7266 43.76 92.0466 41.76C93.4066 39.76 94.8266 37.86 96.3066 36.06C97.8266 34.26 99.3866 32.7 100.987 31.38C102.627 30.06 104.247 29.16 105.847 28.68C106.287 28.56 106.687 28.5 107.047 28.5C107.727 28.5 108.287 28.7 108.727 29.1C109.207 29.46 109.447 30.1 109.447 31.02C109.447 31.66 109.287 32.46 108.967 33.42C108.447 34.82 107.567 36.38 106.327 38.1C105.087 39.78 103.627 41.54 101.947 43.38C100.267 45.18 98.4866 46.96 96.6066 48.72C94.7666 50.48 92.9666 52.12 91.2066 53.64C89.4466 55.16 87.8866 56.46 86.5266 57.54C86.1666 58.3 85.8266 59.04 85.5066 59.76C85.2266 60.48 84.9666 61.18 84.7266 61.86C84.6066 62.22 84.4266 62.76 84.1866 63.48C83.9466 64.2 83.7266 65 83.5266 65.88C83.3266 66.76 83.2266 67.6 83.2266 68.4C83.2266 69.2 83.3866 69.9 83.7066 70.5C84.0266 71.06 84.6066 71.34 85.4466 71.34C86.1266 71.34 86.7466 71.12 87.3066 70.68C87.9066 70.24 88.4466 69.76 88.9266 69.24C90.6066 67.32 92.1066 65.1 93.4266 62.58C93.5866 62.3 93.7066 62.16 93.7866 62.16C93.8666 62.16 93.9066 62.28 93.9066 62.52C93.9066 62.88 93.8266 63.26 93.6666 63.66C92.9066 65.06 92.2066 66.24 91.5666 67.2C90.9666 68.16 90.0866 69.22 88.9266 70.38C88.4066 70.9 87.7866 71.36 87.0666 71.76C86.3866 72.16 85.6066 72.36 84.7266 72.36ZM87.1866 56.16C88.4266 55.08 89.8666 53.8 91.5066 52.32C93.1466 50.8 94.8266 49.18 96.5466 47.46C98.2666 45.74 99.8866 44.02 101.407 42.3C102.967 40.58 104.307 38.96 105.427 37.44C106.587 35.92 107.367 34.6 107.767 33.48C108.127 32.44 108.307 31.64 108.307 31.08C108.307 30.04 107.847 29.52 106.927 29.52C106.407 29.52 105.787 29.72 105.067 30.12C104.347 30.48 103.687 30.96 103.087 31.56C102.087 32.52 100.907 33.9 99.5466 35.7C98.2266 37.46 96.8266 39.48 95.3466 41.76C93.8666 44.04 92.4066 46.42 90.9666 48.9C89.5666 51.38 88.3066 53.8 87.1866 56.16ZM99.1453 72.48C96.8253 72.48 95.1853 71.88 94.2253 70.68C93.7453 70.16 93.4053 69.54 93.2053 68.82C93.0053 68.1 92.9053 67.36 92.9053 66.6C92.9053 65.64 93.0253 64.68 93.2653 63.72C93.5053 62.72 93.8053 61.8 94.1653 60.96C94.7253 59.64 95.4653 58.32 96.3853 57C97.3053 55.64 98.4053 54.5 99.6853 53.58C101.005 52.66 102.445 52.2 104.005 52.2C105.045 52.2 105.865 52.46 106.465 52.98C107.065 53.5 107.365 54.3 107.365 55.38C107.365 56.62 106.985 57.88 106.225 59.16C105.465 60.4 104.505 61.44 103.345 62.28C102.185 63.12 100.985 63.54 99.7453 63.54C98.6253 63.54 97.6453 63.14 96.8053 62.34C96.5653 62.98 96.3653 63.7 96.2053 64.5C96.0453 65.26 95.9653 66.04 95.9653 66.84C95.9653 68.08 96.2053 69.16 96.6853 70.08C97.2053 71 98.1253 71.46 99.4453 71.46C100.405 71.46 101.325 71.22 102.205 70.74C103.125 70.22 103.945 69.6 104.665 68.88C105.465 68.04 106.225 67.14 106.945 66.18C107.665 65.22 108.365 64.1 109.045 62.82C109.125 62.7 109.185 62.64 109.225 62.64C109.385 62.64 109.465 62.82 109.465 63.18C109.465 63.42 109.385 63.68 109.225 63.96C108.625 65.04 107.925 66.14 107.125 67.26C106.325 68.34 105.505 69.28 104.665 70.08C103.905 70.8 103.085 71.38 102.205 71.82C101.325 72.26 100.305 72.48 99.1453 72.48ZM97.1053 61.44C97.3853 61.84 97.7053 62.14 98.0653 62.34C98.4653 62.5 98.8653 62.58 99.2653 62.58C100.225 62.58 101.225 62.22 102.265 61.5C103.305 60.74 104.145 59.86 104.785 58.86C105.065 58.42 105.305 57.84 105.505 57.12C105.745 56.4 105.865 55.72 105.865 55.08C105.865 54.52 105.745 54.04 105.505 53.64C105.305 53.2 104.885 52.98 104.245 52.98C103.525 52.98 102.665 53.42 101.665 54.3C100.705 55.18 99.7853 56.32 98.9053 57.72C98.6253 58.2 98.3053 58.76 97.9453 59.4C97.6253 60.04 97.3453 60.72 97.1053 61.44Z" fill="#F0DDA3"/>
</svg>
