<svg width="17" height="21" viewBox="0 0 17 21" fill="none" xmlns="http://www.w3.org/2000/svg">
<path d="M8.49984 10.4999C9.07275 10.4999 9.56338 10.2958 9.97171 9.88742C10.3794 9.47978 10.5832 8.9895 10.5832 8.41658C10.5832 7.84367 10.3794 7.35304 9.97171 6.94471C9.56338 6.53707 9.07275 6.33325 8.49984 6.33325C7.92692 6.33325 7.43664 6.53707 7.029 6.94471C6.62067 7.35304 6.4165 7.84367 6.4165 8.41658C6.4165 8.9895 6.62067 9.47978 7.029 9.88742C7.43664 10.2958 7.92692 10.4999 8.49984 10.4999ZM8.49984 20.9166C5.7047 18.5381 3.6172 16.3287 2.23734 14.2885C0.856782 12.2489 0.166504 10.361 0.166504 8.62492C0.166504 6.02075 1.00435 3.9461 2.68005 2.40096C4.35505 0.855821 6.29498 0.083252 8.49984 0.083252C10.7047 0.083252 12.6446 0.855821 14.3196 2.40096C15.9953 3.9461 16.8332 6.02075 16.8332 8.62492C16.8332 10.361 16.1432 12.2489 14.7634 14.2885C13.3828 16.3287 11.295 18.5381 8.49984 20.9166Z" fill="#F0DDA3"/>
</svg>
