<svg width="36" height="35" viewBox="0 0 36 35" fill="none" xmlns="http://www.w3.org/2000/svg">
<path d="M16.853 23.4502C17.1744 23.7636 17.5765 23.9128 18.0591 23.898C18.5406 23.8843 18.9421 23.7208 19.2635 23.4075C19.5849 23.0941 19.7456 22.6953 19.7456 22.211C19.7456 21.7267 19.5849 21.3279 19.2635 21.0146L17.6857 19.4763H23.3393C23.836 19.4763 24.2451 19.3122 24.5665 18.984C24.8878 18.657 25.0485 18.2513 25.0485 17.767C25.0485 17.2828 24.8808 16.8765 24.5454 16.5484C24.2088 16.2213 23.7922 16.0578 23.2955 16.0578H17.6857L19.3073 14.4768C19.6287 14.1634 19.7824 13.7714 19.7684 13.3008C19.7532 12.8314 19.5849 12.44 19.2635 12.1266C18.9421 11.8132 18.533 11.6566 18.0363 11.6566C17.5397 11.6566 17.1306 11.8132 16.8092 12.1266L12.2513 16.5706C11.9299 16.8839 11.7692 17.2828 11.7692 17.767C11.7692 18.2513 11.9299 18.6501 12.2513 18.9635L16.853 23.4502ZM18.0363 34.8593C15.6113 34.8593 13.3323 34.4103 11.1995 33.5124C9.06658 32.6156 7.21127 31.3981 5.63353 29.8598C4.05578 28.3215 2.80703 26.5126 1.88726 24.433C0.966327 22.3534 0.505859 20.1315 0.505859 17.767C0.505859 15.4026 0.966327 13.1806 1.88726 11.1011C2.80703 9.02151 4.05578 7.21258 5.63353 5.67428C7.21127 4.13598 9.06658 2.91787 11.1995 2.01996C13.3323 1.12319 15.6113 0.674805 18.0363 0.674805C20.4614 0.674805 22.7404 1.12319 24.8732 2.01996C27.0061 2.91787 28.8614 4.13598 30.4392 5.67428C32.0169 7.21258 33.2657 9.02151 34.1854 11.1011C35.1064 13.1806 35.5668 15.4026 35.5668 17.767C35.5668 20.1315 35.1064 22.3534 34.1854 24.433C33.2657 26.5126 32.0169 28.3215 30.4392 29.8598C28.8614 31.3981 27.0061 32.6156 24.8732 33.5124C22.7404 34.4103 20.4614 34.8593 18.0363 34.8593Z" fill="#F0DDA3"/>
</svg>
