<svg width="35" height="35" viewBox="0 0 35 35" fill="none" xmlns="http://www.w3.org/2000/svg">
<path d="M18.7311 23.4075L23.175 18.9635C23.4884 18.6501 23.6451 18.2513 23.6451 17.767C23.6451 17.2828 23.4884 16.8839 23.175 16.5706L18.6883 12.0839C18.375 11.7705 17.9836 11.6207 17.5141 11.6343C17.0435 11.6492 16.6515 11.8132 16.3382 12.1266C16.0248 12.44 15.8681 12.8388 15.8681 13.3231C15.8681 13.8073 16.0248 14.2062 16.3382 14.5195L17.8765 16.0578H12.3642C11.8799 16.0578 11.4811 16.2213 11.1678 16.5484C10.8544 16.8765 10.6977 17.2828 10.6977 17.767C10.6977 18.2513 10.8618 18.657 11.19 18.984C11.517 19.3122 11.9227 19.4763 12.4069 19.4763H17.8765L16.2954 21.0573C15.9821 21.3706 15.8322 21.7626 15.8459 22.2332C15.8607 22.7027 16.0248 23.0941 16.3382 23.4075C16.6515 23.7208 17.0503 23.8775 17.5346 23.8775C18.0189 23.8775 18.4177 23.7208 18.7311 23.4075ZM17.5346 34.8593C15.1702 34.8593 12.9482 34.4103 10.8686 33.5124C8.78909 32.6156 6.98016 31.3981 5.44186 29.8598C3.90356 28.3215 2.68602 26.5126 1.78925 24.433C0.891339 22.3534 0.442383 20.1315 0.442383 17.767C0.442383 15.4026 0.891339 13.1806 1.78925 11.1011C2.68602 9.02151 3.90356 7.21258 5.44186 5.67428C6.98016 4.13598 8.78909 2.91787 10.8686 2.01996C12.9482 1.12319 15.1702 0.674805 17.5346 0.674805C19.899 0.674805 22.121 1.12319 24.2006 2.01996C26.2801 2.91787 28.0891 4.13598 29.6274 5.67428C31.1657 7.21258 32.3832 9.02151 33.28 11.1011C34.1779 13.1806 34.6268 15.4026 34.6268 17.767C34.6268 20.1315 34.1779 22.3534 33.28 24.433C32.3832 26.5126 31.1657 28.3215 29.6274 29.8598C28.0891 31.3981 26.2801 32.6156 24.2006 33.5124C22.121 34.4103 19.899 34.8593 17.5346 34.8593Z" fill="#F0DDA3"/>
</svg>
