<svg width="37" height="37" viewBox="0 0 37 37" fill="none" xmlns="http://www.w3.org/2000/svg">
<path d="M37 18.5C37 23.4065 35.0509 28.1121 31.5815 31.5815C28.1121 35.0509 23.4065 37 18.5 37C13.5935 37 8.88795 35.0509 5.41852 31.5815C1.9491 28.1121 0 23.4065 0 18.5C0 13.5935 1.9491 8.88795 5.41852 5.41852C8.88795 1.9491 13.5935 0 18.5 0C23.4065 0 28.1121 1.9491 31.5815 5.41852C35.0509 8.88795 37 13.5935 37 18.5ZM19.1637 13.6576C17.3646 14.4069 13.7663 15.9562 8.37356 18.3057C7.49944 18.6526 7.03925 18.9949 6.99762 19.3279C6.92825 19.8898 7.63356 20.1118 8.59325 20.4148L8.99794 20.5419C9.94144 20.8495 11.2133 21.2079 11.8724 21.2218C12.4736 21.2357 13.1419 20.9906 13.8796 20.4818C18.9186 17.0801 21.5201 15.3619 21.682 15.3249C21.7976 15.2972 21.9595 15.2648 22.0659 15.3619C22.1746 15.4567 22.163 15.6394 22.1514 15.688C22.0821 15.9863 19.314 18.5578 17.8826 19.8898C17.4362 20.3061 17.1194 20.5998 17.0547 20.6668C16.9121 20.8125 16.7672 20.9559 16.6199 21.0969C15.7412 21.9433 15.0844 22.5769 16.6546 23.6129C17.4108 24.1124 18.0167 24.5217 18.6203 24.9334C19.277 25.382 19.9338 25.8283 20.7847 26.3879C20.9998 26.5267 21.2079 26.677 21.4091 26.8204C22.1746 27.3661 22.866 27.8564 23.7147 27.7778C24.2096 27.7315 24.7206 27.269 24.9796 25.8815C25.5924 22.6047 26.7973 15.5076 27.0748 12.5823C27.0917 12.3391 27.0816 12.0948 27.0447 11.8539C27.0229 11.6594 26.9288 11.4803 26.7811 11.3521C26.5706 11.2068 26.3198 11.1316 26.0642 11.137C25.3704 11.1486 24.2997 11.5209 19.1637 13.6576Z" fill="#F0DDA3"/>
</svg>
